# xmcd
# 
# Track frame offsets:
#     150
#     24322
#     50851
#     67344
#     101517
#     104584
#     120595
#     150812
#     172897
# 
# Disc length: 2553
# 
# Revision: 1
# Processed by: cddbd v1.5.2PL0 Copyright (c) Steve Scherf et al.
# Submitted via: fre:ac v1.0.27
# 
DISCID=7009f709
DTITLE=Bill Evans - Everybody Digs Bill Evans
DYEAR=1958
DGENRE=Jazz
TTITLE0=Minority
TTITLE1=Young And Foolish
TTITLE2=Lucky To Be Me
TTITLE3=Night And Day
TTITLE4=Epilogue
TTITLE5=Tenderly
TTITLE6=Peace Piece
TTITLE7=What Is There To Say?
TTITLE8=Oleo
EXTD=YEAR: 1958
EXTT0=
EXTT1=
EXTT2=
EXTT3=
EXTT4=
EXTT5=
EXTT6=
EXTT7=
EXTT8=
PLAYORDER=
